<svg xmlns="http://www.w3.org/2000/svg" xmlns:xlink="http://www.w3.org/1999/xlink" version="1.1" x="0px" y="0px" viewBox="0 0 100 100" enable-background="new 0 0 100 100" xml:space="preserve"><path fill="#000000" d="M55.307,72.154c-1.941,1.635-3.459,4.121-4.269,7.693c-0.386-0.221-0.831-0.344-1.306-0.344  c-0.411,0-0.8,0.096-1.146,0.262c-0.811-3.518-2.31-5.975-4.228-7.598l-0.062-0.021c-0.235-0.051-0.666,0.109-1.134,0.344  c2.052,1.49,3.733,3.988,4.557,7.938c-0.405,0.467-0.65,1.076-0.65,1.742c0,0.904,0.452,1.705,1.144,2.188  c0.119,2.176,0.035,4.67-0.297,7.521l0.988,0.104c0.309-2.682,0.406-5.07,0.317-7.197c0.169,0.033,0.339,0.049,0.513,0.049  c0.238,0,0.471-0.027,0.69-0.09c-0.075,1.785-0.021,3.758,0.183,5.934l0.98-0.141c-0.219-2.355-0.256-4.459-0.146-6.32  c0.585-0.488,0.959-1.227,0.959-2.047c0-0.588-0.188-1.127-0.509-1.564c0.805-4.039,2.501-6.59,4.578-8.104  C55.996,72.262,55.56,72.1,55.307,72.154z M49.734,83.842c-0.923,0-1.67-0.746-1.67-1.67s0.747-1.674,1.67-1.674  s1.674,0.75,1.674,1.674S50.657,83.842,49.734,83.842z M52.463,95.592c0.055,0.369-0.203,0.715-0.574,0.768  c-0.373,0.053-0.719-0.205-0.77-0.576c-0.035-0.244,0.064-0.477,0.24-0.621l-1.255-3.73l2.142-0.305l-0.186,3.938  C52.27,95.152,52.428,95.35,52.463,95.592z M49.416,92.576l-1.124,3.775c0.184,0.139,0.287,0.367,0.265,0.607  c-0.039,0.373-0.374,0.646-0.746,0.604c-0.375-0.039-0.646-0.373-0.605-0.744c0.026-0.246,0.181-0.445,0.387-0.545l-0.325-3.926  L49.416,92.576z M69.053,42.008c-0.443-0.109-1.265,0.41-1.902,1.586c0.159,0.197,0.207,0.535,0.098,0.918  c-0.172,0.594-0.654,1.084-1.078,1.051c-0.932-0.071-0.338-1.455-0.279-1.588c0.688-1.744,2.027-3.268,3.4-2.93  C69.932,41.204,69.693,42.167,69.053,42.008z M49.905,22.042c-6.849,0-13.121,0.719-17.979,1.906  c7.716-30.992,8.597-16.59,18.039-16.156c9.447-0.434,10.324-14.848,18.048,16.191C63.141,22.771,56.816,22.042,49.905,22.042z   M95.709,27.779c-1.09-4.488-6.113-7.469-19.402-3.811c-17.936,4.938-34.74,4.938-52.675,0c-13.289-3.658-18.315-0.678-19.407,3.811  c-1.312,5.402,7.893,11.146,24.118,12.582c-0.296,1.402,0.063,3.242,0.886,4.865c0.011,0.021,0.021,0.043,0.034,0.059  c0.01,0.025,0.021,0.049,0.035,0.074c0.896,1.715,1.693,2.945,2.515,3.686c0.825,0.742,1.688,0.998,2.651,0.785  c0.609,4.449,2.12,7.558,4.154,9.679l0.187,0.193c-0.002,0.023-0.002,0.051,0,0.078c0.035,0.643,0.291,1.334,0.366,1.99  C38.655,62.4,38.198,63,37.909,64.043l-1.79,7.227l-1.346,5.436c-0.18,0.727,0.49,0.756,0.845,0.469  c0.6-0.447,2.484-2.059,4.4-3.439c0.238-0.168,0.542-0.377,0.819-0.578c1.488-1.014,2.882-1.762,3.57-1.568  c1.377,0.479,2.447,1.086,3.188,1.775c1.15,1.072,1.67,2.438,1.711,4.197c0.004,0.348,0.287,0.512,0.547,0.484  c0.113-0.012,0.223-0.057,0.305-0.139c0.08-0.08,0.134-0.193,0.138-0.365c0.041-1.74,0.558-3.105,1.709-4.18  c0.738-0.689,1.812-1.295,3.188-1.775c0.688-0.193,2.088,0.561,3.584,1.576l0.871,0.615c1.891,1.373,3.742,2.955,4.336,3.396  c0.354,0.287,1.021,0.258,0.843-0.469l-1.345-5.438l-1.791-7.225c-0.291-1.045-0.747-1.646-1.262-2.273  c0.078-0.654,0.33-1.344,0.369-1.979l0.184-0.176l0.082-0.08l0.179-0.189l0.034-0.035l0.033-0.039l0.031-0.035l0.03-0.035  l0.034-0.037l0.03-0.035l0.032-0.039l0.033-0.039l0.029-0.041c1.811-2.104,3.145-5.066,3.707-9.191  c0.988,0.238,1.869-0.014,2.711-0.771c0.82-0.739,1.617-1.971,2.518-3.687c0.015-0.024,0.023-0.049,0.035-0.073  c0.012-0.017,0.021-0.039,0.031-0.06c0.816-1.614,1.18-3.444,0.921-4.852C87.77,38.958,97.025,33.197,95.709,27.779z M49.967,29.383  c4.852,0,9.804,0.25,13.225,1.262c3.024,0.9,4.867,2.402,4.344,4.865c-0.418,1.16-0.832,2.18-1.19,3.02  c0.074-2.242-0.149-6.051-2.897-6.74c-0.08-0.037-0.17-0.053-0.269-0.033c-0.094,0.008-0.176,0.043-0.241,0.096  c-1.701,0.865-3.164,1.422-4.474,1.807c-3.071,0.904-6.067,0.877-8.933,2.188c0.37-0.629,0.822-1.211,1.327-1.639  c0.764-0.645-0.255-1.049-0.735-0.736c-0.641,0.287-2.699,1.219-4.309,2.119c0.406-0.588,0.88-1.158,1.421-1.705  c0.454-0.459,0.086-1.033-0.519-0.814c-2.562,0.922-4.74,2.133-6.331,3.625c0.505-1.086,1.21-2.207,2.066-3.27  c0.39-0.482,0.809-0.947,1.25-1.391c0.446-0.447,0.111-1.008-0.493-0.824c-1.13,0.34-2.097,0.689-2.927,1.068  c-1.28,0.586-2.268,1.262-3.033,2.127c0.118-0.58,0.343-1.217,0.761-2.045c0.239-0.479-0.059-0.844-0.574-0.701  c-3.051,0.836-3.775,4.195-3.773,7.029c-0.364-0.842-0.787-1.875-1.221-3.061C31.146,30.29,40.734,29.381,49.967,29.383z   M45.188,34.76c-0.408,0.559-0.765,1.131-1.064,1.711c-0.473-0.135-0.963-0.24-1.467-0.309  C43.408,35.654,44.257,35.186,45.188,34.76z M36.084,75.533l1.058-4.264l1.729-6.992c0.067-0.24,0.146-0.449,0.234-0.641  c0.112,2.57,1.772,5.221,4.18,7.102c-0.393,0.121-0.815,0.303-1.256,0.531C40.003,72.316,37.594,74.297,36.084,75.533z   M51.334,72.635c-0.703,0.656-1.205,1.404-1.53,2.234c-0.328-0.83-0.826-1.578-1.531-2.234c-0.558-0.518-1.229-0.971-2.029-1.365  c-0.368-0.184-0.762-0.352-1.186-0.51c-3.295-2.004-5.341-5.377-4.909-8.168c0.104-0.684-0.057-1.271-0.194-1.875l0.162,0.123  c0.113,0.084,0.226,0.168,0.34,0.248c0.127,0.084,0.252,0.166,0.377,0.24c0.031,0.02,0.062,0.037,0.092,0.064l0.047,0.029  c0.137,0.09,0.273,0.168,0.411,0.242c1.452,0.826,3.036,1.346,4.671,1.631c0.242,0.043,0.404,0.107,0.558,0.188  c1.187,0.6,1.797,0.729,3.241,0.729c1.431,0,2.142-0.182,2.659-0.422c0.406-0.188,0.688-0.414,1.143-0.494  c1.734-0.305,3.416-0.869,4.939-1.789l-0.002,0.012c0.271-0.164,0.537-0.338,0.803-0.529c0.064-0.047,0.145-0.107,0.234-0.18  c-0.133,0.568-0.271,1.135-0.17,1.781c0.43,2.791-1.617,6.164-4.912,8.17c-0.422,0.156-0.814,0.324-1.186,0.51  C52.561,71.664,51.889,72.117,51.334,72.635z M60.498,63.637c0.09,0.191,0.166,0.4,0.234,0.643l1.729,6.99l1.059,4.266  c-1.514-1.236-3.918-3.219-5.943-4.266c-0.439-0.229-0.865-0.41-1.257-0.529C58.725,68.857,60.383,66.209,60.498,63.637z   M69.655,44.779l-0.021,0.053c-0.018,0.023-0.027,0.047-0.039,0.07c-0.896,1.705-1.623,2.793-2.303,3.404  c-0.678,0.608-1.277,0.729-2.018,0.487c-0.043-0.012-0.08-0.021-0.119-0.024c-0.268-0.217-0.768-0.138-0.816,0.326  c-1.041,9.014-5.717,12.319-10.857,13.225c-1.586,0.279-1.062,0.9-3.629,0.9c-2.564,0-2.041-0.621-3.627-0.9  c-5.142-0.904-9.817-4.211-10.856-13.225c-0.054-0.472-0.573-0.548-0.837-0.312l-0.04,0.012c-0.737,0.24-1.34,0.121-2.016-0.488  c-0.682-0.61-1.407-1.699-2.3-3.403c-0.015-0.023-0.027-0.048-0.043-0.07l-0.021-0.053c-0.944-1.869-1.109-3.812-0.59-4.832  c0.701-1.375,2.351-0.66,3.221,0.139c0.201,0.184,0.398,0.395,0.586,0.629c0.02,0.021,0.033,0.041,0.053,0.06  c0.254,0.803,0.549,1.479,0.814,2.002c0.408,0.809,0.748,1.254,0.748,1.254c0.409,0.543,1.132,0.109,0.846-0.506  c-0.553-1.182-0.87-2.15-1.031-2.971c-0.184-1.66-0.383-5.768,1.822-7.398c-0.43,1.176-0.445,2.035-0.447,3.064  c0,0.363,0.357,0.486,0.653,0.402c0.057-0.012,0.163-0.029,0.374-0.355c0.726-1.354,1.789-2.285,3.535-3.084  c0.319-0.146,0.623-0.242,0.987-0.379c-0.868,1.076-1.601,2.227-2.145,3.365c-0.982,0.139-1.918,0.404-2.784,0.779  c-1.116,0.482-0.394,2.154,0.723,1.674c0.416-0.182,0.851-0.33,1.305-0.447c-0.072,0.268-0.133,0.531-0.179,0.787  c-0.114,0.65,0.573,0.906,0.913,0.344c0.296-0.49,0.654-0.961,1.076-1.41c0.176-0.01,0.352-0.014,0.531-0.014  c1.971,0,3.714,0.6,5.118,1.6c0.989,0.703,2.046-0.783,1.058-1.486c-0.572-0.404-1.189-0.758-1.846-1.047  c0.893-0.564,2.215-1.23,3.315-1.756c-0.324,0.525-0.593,1.08-0.795,1.604c-0.015,0.033-0.021,0.066-0.029,0.096l-0.024,0.092  c-0.097,0.34,0.342,0.695,0.768,0.447c3.178-1.822,6.646-1.816,10.062-2.822c1.33-0.393,2.821-0.957,4.549-1.828  c2.256,0.686,2.178,4.836,1.932,7.078c-0.096,0.975-0.422,2.145-1.133,3.665c-0.285,0.615,0.438,1.052,0.846,0.507  c0.02-0.022,0.994-1.328,1.629-3.477c0.148-0.168,0.297-0.326,0.452-0.467c0.871-0.799,2.519-1.514,3.221-0.139  C70.764,40.967,70.6,42.91,69.655,44.779z M42.513,52.021c-0.58-0.164-1.214,0.58-1.271,1.113c-0.058,0.518-0.833,0.434-0.776-0.086  c0.11-1.002,1.187-2.08,2.258-1.779C43.224,51.41,43.014,52.162,42.513,52.021z M56.723,52.932  c-1.312,0.527-2.317,0.654-4.316,0.719c0,0-1.039,0.047-2.559,0.057c-1.516-0.01-2.55-0.057-2.55-0.057  c-1.998-0.062-3.006-0.189-4.315-0.719c-0.613-0.246-0.982,0.674-0.369,0.92c0.146,0.062,0.291,0.115,0.437,0.166  c0.389,0.209,0.819,0.424,1.166,0.742c2.12,1.967,2.067,2.805,5.637,2.805c2.105,0,3.096-0.193,4.492-1.65  c0.229-0.234,0.416-0.434,0.584-0.604c0.541-0.51,0.959-0.854,1.736-1.297c0.141-0.049,0.281-0.104,0.428-0.162  C57.705,53.605,57.336,52.686,56.723,52.932z M49.852,56.277c-1.677,0-2.613,0.016-3.791-1.111  c-0.248-0.236-0.466-0.447-0.668-0.637c0.545,0.057,1.148,0.088,1.864,0.111c0,0,1.054,0.047,2.595,0.057  c1.478-0.01,2.506-0.053,2.592-0.055c0.706-0.025,1.305-0.057,1.848-0.109C52.85,55.938,52.711,56.277,49.852,56.277z   M41.374,40.318c-1.237,0.174-2.139,0.823-2.474,1.567c-0.286,0.633-1.234,0.202-0.948-0.429c0.611-1.354,2.236-2.225,4.09-2.225  c1.845,0,3.533,0.865,4.146,2.225c0.285,0.631-0.664,1.062-0.947,0.429c-0.315-0.695-1.164-1.312-2.312-1.53  c0.396,0.262,0.656,0.709,0.656,1.217c0,0.809-0.656,1.463-1.463,1.463c-0.807,0-1.461-0.654-1.461-1.463  C40.662,41.042,40.945,40.576,41.374,40.318z M50.391,62.096H49.32c-0.661,0-0.661-0.992,0-0.992h1.071  C51.051,61.104,51.051,62.096,50.391,62.096z M62.598,38.622c-1.096-0.473-2.33-0.74-3.646-0.74c-1.971,0-3.714,0.6-5.119,1.6  c-0.99,0.703-2.046-0.783-1.055-1.486c1.709-1.215,3.818-1.937,6.174-1.937c1.562,0,3.047,0.316,4.37,0.889  C64.438,37.43,63.713,39.101,62.598,38.622z M59.15,53.049c0.055,0.521-0.719,0.604-0.775,0.086  c-0.059-0.533-0.689-1.277-1.271-1.113c-0.501,0.143-0.711-0.609-0.211-0.752C57.965,50.969,59.041,52.047,59.15,53.049z   M61.756,41.458c0.285,0.631-0.662,1.061-0.949,0.428c-0.334-0.744-1.235-1.393-2.473-1.565c0.428,0.258,0.709,0.723,0.709,1.254  c0,0.809-0.652,1.463-1.463,1.463c-0.805,0-1.461-0.654-1.461-1.463c0-0.509,0.26-0.955,0.656-1.217  c-1.146,0.217-1.995,0.833-2.312,1.529c-0.285,0.633-1.232,0.203-0.947-0.428c0.613-1.359,2.305-2.225,4.147-2.225  C59.519,39.232,61.143,40.104,61.756,41.458z M33.888,43.975c0.057,0.133,0.647,1.517-0.281,1.588  c-0.424,0.033-0.908-0.457-1.078-1.051c-0.109-0.383-0.062-0.721,0.098-0.918c-0.639-1.176-1.459-1.695-1.901-1.586  c-0.642,0.158-0.879-0.805-0.238-0.963C31.859,40.708,33.201,42.231,33.888,43.975z M46.36,49.483c0,0,0.059-0.07,0.173-0.154  c0.585-0.426,1.299-0.344,1.876,0.092c0.258,0.191,0.537,0.326,1.425,0.326c0.894,0,1.188-0.135,1.443-0.326  c0.604-0.453,1.525-0.537,2.051,0.062c0.445,0.483-0.285,1.153-0.729,0.67c-0.258-0.191-0.506-0.103-0.729,0.061l-0.066,0.049  c-0.023,0.025-0.051,0.052-0.08,0.074c-0.584,0.444-1.047,0.901-1.863,0.901c-0.815,0-1.288-0.457-1.872-0.901  c-0.069-0.049-0.12-0.086-0.173-0.123c-0.254-0.191-0.478-0.244-0.723-0.061C46.644,50.637,45.915,49.967,46.36,49.483z"></path></svg>